HIERARCHY
ROOT Hips
{
	OFFSET	0.00	0.00	0.00
	CHANNELS 6 Xposition Yposition Zposition Zrotation Xrotation Yrotation
	JOINT LeftUpLeg
	{
		OFFSET	 0.126116	-0.014019	-0.065224
		CHANNELS 3 Zrotation Xrotation Yrotation
		JOINT LeftLeg
		{
			OFFSET	 0.000000	 0.000000	 0.569914
			CHANNELS 3 Zrotation Xrotation Yrotation
			JOINT LeftFoot
			{
				OFFSET	 0.000000	 0.000000	 0.544423
				CHANNELS 3 Zrotation Xrotation Yrotation
				JOINT LeftToeBase
				{
					OFFSET	 0.000000	 0.000000	 0.207117
					CHANNELS 3 Zrotation Xrotation Yrotation
					End Site
					{
						OFFSET	 0.000000	 0.000000	 0.207117
					}
				}
			}
		}
	}
	JOINT RightUpLeg
	{
		OFFSET	-0.124023	-0.008373	-0.065224
		CHANNELS 3 Zrotation Xrotation Yrotation
		JOINT RightLeg
		{
			OFFSET	 0.000000	 0.000000	 0.570047
			CHANNELS 3 Zrotation Xrotation Yrotation
			JOINT RightFoot
			{
				OFFSET	 0.000000	 0.000000	 0.544354
				CHANNELS 3 Zrotation Xrotation Yrotation
				JOINT RightToeBase
				{
					OFFSET	 0.000000	 0.000000	 0.207540
					CHANNELS 3 Zrotation Xrotation Yrotation
					End Site
					{
						OFFSET	 0.000000	 0.000000	 0.207540
					}
				}
			}
		}
	}
	JOINT Spine
	{
		OFFSET	 0.000184	-0.007763	 0.117403
		CHANNELS 3 Zrotation Xrotation Yrotation
		JOINT Spine1
		{
			OFFSET	 0.000000	 0.000000	 0.137269
			CHANNELS 3 Zrotation Xrotation Yrotation
			JOINT Spine2
			{
				OFFSET	 0.000000	 0.000000	 0.156879
				CHANNELS 3 Zrotation Xrotation Yrotation
				JOINT LeftShoulder
				{
					OFFSET	 0.080501	-0.002496	 0.160144
					CHANNELS 3 Zrotation Xrotation Yrotation
					JOINT LeftArm
					{
						OFFSET	 0.000000	 0.000000	 0.164363
						CHANNELS 3 Zrotation Xrotation Yrotation
						JOINT LeftForeArm
						{
							OFFSET	 0.000000	 0.000000	 0.364576
							CHANNELS 3 Zrotation Xrotation Yrotation
							JOINT LeftHand
							{
								OFFSET	 0.000000	 0.000000	 0.360812
								CHANNELS 3 Zrotation Xrotation Yrotation
								JOINT LeftHandIndex1
								{
									OFFSET	 0.000000	 0.000000	 0.086006
									CHANNELS 3 Zrotation Xrotation Yrotation
									JOINT LeftHandIndex2
									{
										OFFSET	 0.000000	 0.000000	 0.047236
										CHANNELS 3 Zrotation Xrotation Yrotation
										JOINT LeftHandIndex3
										{
											OFFSET	-0.004284	-0.000551	 0.038166
											CHANNELS 3 Zrotation Xrotation Yrotation
											End Site
											{
												OFFSET	-0.004284	-0.000551	 0.038166
											}
										}
									}
								}
							}
						}
					}
				}
				JOINT Neck
				{
					OFFSET	 0.000000	 0.000000	 0.176489
					CHANNELS 3 Zrotation Xrotation Yrotation
					JOINT Head
					{
						OFFSET	 0.000000	-0.001747	 0.077940
						CHANNELS 3 Zrotation Xrotation Yrotation
						End Site
						{
							OFFSET	 0.000000	-0.001747	 0.077940
						}
					}
				}
				JOINT RightShoulder
				{
					OFFSET	-0.080363	 0.000306	 0.159706
					CHANNELS 3 Zrotation Xrotation Yrotation
					JOINT RightArm
					{
						OFFSET	 0.000000	 0.000000	 0.164196
						CHANNELS 3 Zrotation Xrotation Yrotation
						JOINT RightForeArm
						{
							OFFSET	 0.000000	 0.000000	 0.365611
							CHANNELS 3 Zrotation Xrotation Yrotation
							JOINT RightHand
							{
								OFFSET	 0.000000	 0.000000	 0.360648
								CHANNELS 3 Zrotation Xrotation Yrotation
								JOINT RightHandIndex1
								{
									OFFSET	 0.000000	 0.000000	 0.069977
									CHANNELS 3 Zrotation Xrotation Yrotation
									JOINT RightHandIndex2
									{
										OFFSET	 0.000000	 0.000000	 0.052305
										CHANNELS 3 Zrotation Xrotation Yrotation
										JOINT RightHandIndex3
										{
											OFFSET	 0.009002	-0.000782	 0.042196
											CHANNELS 3 Zrotation Xrotation Yrotation
											End Site
											{
												OFFSET	 0.009002	-0.000782	 0.042196
											}
										}
									}
								}
							}
						}
					}
				}
			}
		}
	}
}
MOTION
Frames:    8
Frame Time: 0.03333334
-0.000623	 0.030991	 1.272878	 0.002207	-0.000785	-0.180309	 19.307000	-2.333330	 175.976600	 1.494473	-10.101700	-0.587243	-8.009008	 68.062020	 2.109505	-2.385833	 28.452760	 0.000004	-19.346050	-3.740348	-175.927800	-1.466331	-11.416700	 0.653397	 7.413351	 68.259800	-1.591345	 2.384658	 28.388730	 0.000004	 42.512240	 2.770595	-0.100411	 2.080657	 3.578034	 0.824146	-6.261206	-4.383688	-1.356916	-91.776270	 78.527430	-179.999900	 46.175600	 32.507780	-52.093500	-27.239590	 4.381792	-11.935910	-49.985200	-3.112914	-5.749366	-2.635965	 4.993658	 6.788941	-5.165319	 0.784187	 3.516649	-5.225038	 0.466231	 0.424329	-0.000002	-3.783157	-0.089647	-6.089397	 4.714825	 0.250908	 89.782090	 78.203900	 180.000000	 1.090129	 12.555840	 107.806400	-15.205280	 4.068282	 12.072110	 23.887250	-7.256288	-3.787830	 6.112037	 4.509576	-0.364401	 4.968462	 1.518543	-9.347576	 5.168945	 0.703820	 2.021906
-0.000615	 0.032549	 1.274004	 0.002475	 0.000900	-0.164099	 19.307760	-2.368805	 175.969300	 1.494253	-10.122560	-0.588479	-7.976474	 67.926170	 2.079235	-2.385833	 28.452760	 0.000004	-19.351470	-3.787032	-175.968000	-1.467028	-11.356790	 0.649876	 7.297957	 68.024510	-1.472268	 2.384658	 28.388730	 0.000004	 39.626250	 2.768346	-0.085775	 1.909416	 3.569939	 0.759623	-5.744610	-4.401954	-1.247254	-91.776200	 78.527470	-180.000000	 46.179350	 32.554790	-52.125780	-23.129250	 2.775669	-9.594176	-49.083840	-1.130641	-4.944952	-2.635965	 4.993658	 6.788941	-5.165319	 0.784187	 3.516649	-5.225038	 0.466231	 0.424329	-0.000002	-3.783157	-0.089647	-5.584617	 4.783701	 0.233439	 89.782100	 78.203870	 180.000000	 1.034911	 12.759680	 107.851500	-19.476840	 2.451598	 9.707135	 23.337990	-5.298773	-4.640795	 6.112037	 4.509576	-0.364401	 4.968462	 1.518543	-9.347576	 5.168945	 0.703820	 2.021906
-0.000553	 0.033906	 1.274783	 0.003204	 0.003373	-0.143201	 19.294620	-2.403621	 175.957600	 1.494031	-10.142840	-0.589684	-7.963949	 67.804260	 2.055978	-2.385833	 28.452760	 0.000004	-19.369130	-3.819247	-176.008900	-1.467879	-11.282920	 0.645536	 7.178853	 67.802560	-1.360575	 2.384658	 28.388730	 0.000004	 34.200390	 2.763033	-0.066376	 1.686194	 3.567737	 0.675893	-5.072112	-4.432834	-1.104982	-91.776130	 78.527470	 180.000000	 46.233660	 32.660390	-52.259130	-18.852410	 1.519856	-7.050792	-48.079870	 0.418189	-4.356610	-2.635965	 4.993658	 6.788941	-5.165319	 0.784187	 3.516649	-5.225038	 0.466231	 0.424329	-0.000002	-3.783157	-0.089647	-4.927832	 4.860394	 0.209253	 89.782100	 78.203890	 180.000000	 1.060816	 13.043980	 107.839300	-23.919360	 1.187863	 7.143480	 22.639290	-3.713005	-5.308950	 6.112037	 4.509576	-0.364401	 4.968462	 1.518543	-9.347576	 5.168945	 0.703820	 2.021906
-0.000474	 0.035265	 1.275650	 0.003858	 0.005819	-0.117530	 19.294600	-2.447767	 175.941700	 1.493675	-10.177470	-0.591742	-7.937947	 67.690700	 2.032911	-2.385833	 28.452760	 0.000004	-19.375890	-3.842646	-176.053700	-1.468870	-11.196640	 0.640472	 7.074667	 67.574910	-1.252314	 2.384658	 28.388730	 0.000004	 26.212000	 2.756297	-0.041127	 1.403454	 3.569035	 0.568914	-4.220032	-4.471474	-0.923826	-91.776180	 78.527470	 180.000000	 46.333380	 32.830440	-52.492370	-14.128220	 0.615693	-4.159501	-46.886830	 1.610718	-3.947899	-2.635965	 4.993658	 6.788941	-5.165319	 0.784187	 3.516649	-5.225038	 0.466231	 0.424329	-0.000002	-3.783157	-0.089647	-4.096716	 4.941914	 0.176846	 89.782080	 78.203870	-180.000000	-0.133692	 13.119720	 107.594900	-28.813300	 0.275914	 4.222579	 21.119220	-2.184659	-5.877075	 6.112037	 4.509576	-0.364401	 4.968462	 1.518543	-9.347576	 5.168945	 0.703820	 2.021906
-0.000437	 0.036788	 1.277200	 0.004241	 0.007817	-0.086306	 19.294040	-2.504981	 175.922100	 1.493074	-10.235000	-0.595158	-7.914734	 67.582020	 2.013082	-2.385833	 28.452760	 0.000004	-19.383290	-3.860914	-176.104200	-1.470005	-11.096500	 0.634595	 6.965661	 67.330220	-1.138868	 2.384658	 28.388730	 0.000004	 15.384890	 2.749060	-0.008533	 1.047436	 3.572661	 0.432947	-3.146579	-4.513449	-0.693928	-91.776220	 78.527490	-180.000000	 46.460400	 33.063440	-52.804830	-8.757687	 0.188250	-0.816881	-45.408860	 2.363506	-3.737682	-2.635965	 4.993658	 6.788941	-5.165319	 0.784187	 3.516649	-5.225038	 0.466231	 0.424329	-0.000002	-3.783157	-0.089647	-3.051405	 5.022359	 0.133841	 89.782090	 78.203870	-180.000000	-4.455459	 13.126930	 106.985400	-33.919800	-0.154174	 0.849438	 18.540490	-0.912254	-6.227191	 6.112037	 4.509576	-0.364401	 4.968462	 1.518543	-9.347576	 5.168945	 0.703820	 2.021906
-0.000377	 0.038319	 1.278881	 0.003730	 0.009028	-0.051221	 19.293490	-2.573738	 175.900300	 1.492209	-10.316320	-0.599991	-7.895695	 67.485820	 1.997704	-2.385833	 28.452760	 0.000004	-19.390500	-3.871923	-176.157400	-1.471251	-10.985250	 0.628075	 6.856831	 67.079490	-1.025484	 2.384658	 28.388730	 0.000004	 2.824182	 2.744588	 0.002374	 0.642209	 3.574014	 0.325186	-1.929952	-4.546535	-0.453349	-91.776210	 78.527430	-180.000000	 46.624150	 33.363600	-53.214550	-3.161561	-0.134585	-3.604274	-43.699890	 2.474861	-3.755259	-2.635965	 4.993658	 6.788941	-5.165319	 0.784187	 3.516649	-5.225038	 0.466231	 0.424329	-0.000002	-3.783157	-0.089647	-1.866834	 5.084745	 0.082884	 89.782070	 78.203850	 180.000000	-10.796470	 14.052780	 105.410800	-38.133110	-0.468279	 3.605324	 16.518710	-0.828644	-6.132827	 6.112037	 4.509576	-0.364401	 4.968462	 1.518543	-9.347576	 5.168945	 0.703820	 2.021906
-0.000279	 0.039757	 1.280384	 0.000880	 0.011212	-0.005179	 19.294160	-2.653311	 175.868900	 1.491184	-10.412610	-0.605715	-7.881829	 67.403400	 1.987707	-2.385833	 28.452760	 0.000004	-19.396540	-3.867495	-176.218100	-1.472723	-10.852940	 0.620323	 6.752404	 66.825590	-0.916567	 2.384658	 28.388730	 0.000004	-9.786764	 2.739456	 0.053455	 0.230428	 3.574323	 0.112924	-0.675433	-4.566574	-0.157625	-91.776210	 78.527470	-180.000000	 46.802060	 33.688220	-53.666320	 2.186696	-1.087342	-6.919061	-41.853210	 1.884912	-3.950816	-2.635965	 4.993658	 6.788941	-5.165319	 0.784187	 3.516649	-5.225038	 0.466231	 0.424329	-0.000002	-3.783157	-0.089647	-0.650362	 5.117360	 0.029049	 89.782140	 78.203890	 180.000000	-17.669930	 16.078940	 102.814100	-41.428010	-1.404073	 6.900753	 15.587430	-1.943725	-5.715680	 6.112037	 4.509576	-0.364401	 4.968462	 1.518543	-9.347576	 5.168945	 0.703820	 2.021906
-0.000160	 0.041389	 1.281565	-0.001391	 0.010800	 0.036459	 19.293860	-2.744102	 175.843600	 1.489830	-10.537610	-0.613153	-7.868594	 67.321240	 1.978927	-2.385833	 28.452760	 0.000004	-19.403050	-3.873103	-176.277800	-1.474085	-10.727950	 0.613010	 6.640670	 66.554940	-0.799912	 2.384658	 28.388730	 0.000004	-23.043030	 2.737059	 0.116921	-0.240448	 3.577123	-0.114860	 0.754510	-4.570284	 0.173402	-91.776130	 78.527450	 180.000000	 47.039250	 34.087730	-54.253070	 7.879189	-2.816964	-10.326940	-39.569770	 0.358533	-4.289800	-2.635965	 4.993658	 6.788941	-5.165319	 0.784187	 3.516649	-5.225038	 0.466231	 0.424329	-0.000002	-3.783157	-0.089647	 0.736120	 5.115843	-0.032900	 89.782030	 78.203870	-180.000000	-26.104680	 19.402990	 99.133640	-44.336960	-3.110343	 10.292210	 15.493720	-4.391315	-4.952932	 6.112037	 4.509576	-0.364401	 4.968462	 1.518543	-9.347576	 5.168945	 0.703820	 2.021906
